# xmcd
#
# Track frame offsets: 
#        150
#        14265
#        33488
#        49388
#        69288
#        86376
#        106627
#        124432
#        145876
#        162879
#        180934
#        196606
#        205548
#        218375
#        235578
#        248677
#
# Disc length: 3487 seconds
#
# Revision: 4
# Processed by: cddbd v1.5.2PL0 Copyright (c) Steve Scherf et al.
# Submitted via: ExactAudioCopyFreeDBPlugin 1.0
#
DISCID=c10d9d10
DTITLE=John Denver - Annie's Song, Take Me Home Disc 2
DYEAR=2001
DGENRE=Country
TTITLE0=Annie's Song
TTITLE1=Potter's Wheel
TTITLE2=Two Different Directions
TTITLE3=Chained To The Wheel
TTITLE4=A Country Girl In Paris
TTITLE5=All This Joy
TTITLE6=Thanks To You
TTITLE7=The Gift You Are
TTITLE8=I Want To Live
TTITLE9=Windsong
TTITLE10=Rocky Mountain Suite
TTITLE11=Grandma's Feather Bed
TTITLE12=The Marvelous Toy
TTITLE13=Calypso
TTITLE14=The Flower That Shattered The Stone
TTITLE15=American Child
EXTD=YEAR: 2001
EXTT0=
EXTT1=
EXTT2=
EXTT3=
EXTT4=
EXTT5=
EXTT6=
EXTT7=
EXTT8=
EXTT9=
EXTT10=
EXTT11=
EXTT12=
EXTT13=
EXTT14=
EXTT15=
PLAYORDER=
